<svg id="Capa_1" enable-background="new 0 0 512 512" height="512" viewBox="0 0 512 512" width="512" xmlns="http://www.w3.org/2000/svg"><g><path d="m499.5 319.026h-15.854c2.959-9.83 4.497-20.421 4.497-31.639 0-28.821-9.983-59.125-27.39-83.141-3.078-4.247-6.304-8.177-9.654-11.792-13.448-97.026-96.585-169.676-195.099-169.676s-181.651 72.65-195.099 169.677c-3.35 3.614-6.576 7.545-9.654 11.792-17.407 24.016-27.39 54.32-27.39 83.141 0 11.218 1.538 21.809 4.497 31.639h-15.854c-6.893 0-12.5 5.607-12.5 12.5v20.632c0 6.893 5.607 12.5 12.5 12.5h6.214c3.876 69.339 61.506 124.563 131.797 124.563h210.978c70.291 0 127.921-55.224 131.797-124.563h6.214c6.893 0 12.5-5.607 12.5-12.5v-20.632c0-6.894-5.607-12.501-12.5-12.501zm-27.118-44.359-15.559 15.986-16.226-16.781c-1.413-1.461-3.358-2.287-5.391-2.287-2.033 0-3.979.825-5.392 2.286l-16.211 16.764-16.211-16.764c-1.413-1.461-3.359-2.286-5.392-2.286s-3.979.825-5.392 2.287l-16.21 16.763-16.21-16.763c-1.071-1.107-2.448-1.847-3.936-2.142-.924-5.48-2.18-10.942-3.75-16.334l6.913-7.148 13.901 14.375c1.413 1.461 3.359 2.287 5.392 2.287s3.979-.825 5.392-2.287l13.9-14.376 13.902 14.375c1.413 1.461 3.358 2.286 5.391 2.286s3.979-.825 5.392-2.286l13.901-14.375 13.899 14.375c1.409 1.458 3.349 2.283 5.376 2.287h.015c2.022 0 3.959-.816 5.371-2.265l11.929-12.238c2.522 7.999 4.286 16.172 5.206 24.261zm-23.775-61.618c4.883 6.736 9.133 14.142 12.669 21.92l-11.377 11.672-13.92-14.397c-1.413-1.461-3.358-2.287-5.391-2.287-2.033 0-3.979.825-5.391 2.286l-13.902 14.376-13.902-14.376c-1.413-1.461-3.359-2.286-5.392-2.286s-3.979.825-5.392 2.287l-13.901 14.375-13.901-14.375c-1.413-1.461-3.359-2.287-5.392-2.287s-3.979.825-5.391 2.286l-7.108 7.35c-2.859-6.834-6.23-13.46-10.076-19.759 1.448-2.326 2.964-4.594 4.553-6.786 16.018-22.1 36.121-34.271 56.607-34.271s40.589 12.172 56.607 34.272zm-171.675-23.565c4.053 1.668 8.035 3.82 11.917 6.425l-112.878 112.878c-.725-4.817-1.113-9.802-1.113-14.957 0-.77.035-1.549.052-2.323zm-98.921 77.708c3.907-17.037 11.299-33.789 21.382-47.7 16.018-22.1 36.121-34.271 56.607-34.271 1.282 0 2.562.048 3.84.142zm122.517-61.75c4.205 4.086 8.232 8.752 12.028 13.982l-99.602 99.602h-26.01zm20.244 26.979c2.196 3.995 4.189 8.133 5.976 12.365l-74.239 74.239h-18.341zm11.504 28.051c2.055 7.214 3.476 14.538 4.23 21.781l-36.773 36.773h-26.01zm4.434 42.789c-.501 5.479-1.462 10.738-2.841 15.765h-12.924zm-80.71-265.483c84.897 0 157.428 58.402 176.876 138.996-6.267-4.169-12.798-7.372-19.5-9.555-7.315-21.805-19.307-42.21-34.903-59.279-2.793-3.058-7.538-3.271-10.596-.478-3.058 2.794-3.271 7.538-.478 10.596 12.249 13.406 22.048 29.069 28.78 45.857-1.39-.086-2.783-.137-4.18-.137-25.422 0-49.838 14.372-68.752 40.468-.552.762-1.076 1.547-1.613 2.321-18.442-23.479-41.587-36.346-65.635-36.346s-47.193 12.867-65.635 36.346c-.537-.774-1.061-1.559-1.613-2.321-18.914-26.096-43.331-40.468-68.752-40.468-1.389 0-2.775.051-4.158.136 10.184-25.354 27.329-47.946 49.263-64.55 26.378-19.967 57.809-30.521 90.896-30.521 31.215 0 61.189 9.49 86.681 27.444 3.387 2.385 8.065 1.573 10.451-1.813 2.385-3.387 1.573-8.065-1.813-10.451-28.034-19.743-60.995-30.18-95.319-30.18-36.382 0-70.944 11.605-99.948 33.561-26.632 20.16-46.874 48.351-57.433 79.817-6.701 2.182-13.229 5.385-19.495 9.553 19.448-80.593 91.979-138.996 176.876-138.996zm-192.607 175.271c16.018-22.1 36.121-34.271 56.607-34.271s40.589 12.171 56.607 34.271c1.589 2.192 3.105 4.46 4.553 6.786-5.034 8.243-9.251 17.046-12.574 26.144-2.977 1.891-5.809 4.048-8.457 6.477-11.185-10.264-25.556-15.871-40.881-15.871-15.326 0-29.697 5.607-40.883 15.872-8.175-7.49-18.115-12.513-28.874-14.663 3.766-8.809 8.433-17.199 13.902-24.745zm-19.1 39.071c9.882 1.47 18.965 6.112 26 13.405 2.123 2.201 5.071 3.473 8.13 3.459 3.031-.003 5.854-1.206 7.948-3.385 8.679-9.037 20.355-14.013 32.878-14.013s24.198 4.977 32.878 14.014c2.093 2.179 4.916 3.381 7.947 3.385h.012c.741 0 1.476-.078 2.197-.223-1.491 7.82-2.309 15.694-2.408 23.472-11.149-10.117-25.416-15.648-40.627-15.648-15.327 0-29.699 5.608-40.884 15.874-10.675-9.759-24.496-15.356-38.958-15.823.789-8.153 2.45-16.415 4.887-24.517zm25.999 53.404c2.121 2.199 5.079 3.459 8.118 3.459h.012c3.031-.003 5.854-1.206 7.948-3.385 8.679-9.037 20.355-14.013 32.878-14.013s24.198 4.977 32.878 14.014c2.093 2.179 4.916 3.381 7.947 3.385h.012c.251 0 .5-.021.75-.038.447 3.435 1.06 6.792 1.81 10.08h-118.48c-3.058-8.418-4.827-17.596-5.218-27.397 11.832.393 23.084 5.332 31.345 13.895zm-36.554 59.134h27.826v32.355h-21.089c-3.703-10.204-6.023-21.065-6.737-32.355zm420.071 64.361h-265.809c-4.142 0-7.5 3.358-7.5 7.5s3.358 7.5 7.5 7.5h251.863c-20.76 18.761-48.255 30.203-78.374 30.203h-210.978c-30.119 0-57.614-11.441-78.374-30.203h80.863c4.142 0 7.5-3.358 7.5-7.5s-3.358-7.5-7.5-7.5h-94.809c-4.148-5.321-7.844-11.01-11.036-17.006h417.691c-3.193 5.997-6.888 11.685-11.037 17.006zm-377.245-32.006v-32.355h28.65v32.355zm43.65 0v-32.355h23.906v32.355zm38.906 0v-32.355h28.65v32.355zm43.65 0v-32.355h23.905v32.355zm38.905 0v-32.355h28.65v32.355zm43.65 0v-32.355h23.905v32.355zm38.905 0v-32.355h28.65v32.355zm43.65 0v-32.355h23.906v32.355zm38.906 0v-32.355h28.65v32.355zm64.739 0h-21.089v-32.355h27.826c-.714 11.29-3.034 22.151-6.737 32.355zm25.475-47.355h-482v-15.632h380c4.142 0 7.5-3.358 7.5-7.5s-3.358-7.5-7.5-7.5h-45.623c1.83-7.97 2.765-16.393 2.765-25.195 0-.167-.005-.336-.005-.503l12.87 13.309c1.413 1.461 3.359 2.287 5.392 2.287s3.979-.825 5.392-2.287l16.209-16.763 16.211 16.764c1.413 1.461 3.359 2.286 5.392 2.286s3.979-.825 5.392-2.286l16.21-16.763 16.208 16.763c1.41 1.458 3.351 2.283 5.379 2.287h.013c2.024 0 3.962-.818 5.375-2.269l10.626-10.917c-.67 8.267-2.35 16.058-4.981 23.289h-37.825c-4.142 0-7.5 3.358-7.5 7.5s3.358 7.5 7.5 7.5h67z"/></g></svg>